<?xml version="1.0" standalone="no"?>
<!DOCTYPE svg PUBLIC "-//W3C//DTD SVG 20010904//EN"
 "http://www.w3.org/TR/2001/REC-SVG-20010904/DTD/svg10.dtd">
<svg version="1.0" xmlns="http://www.w3.org/2000/svg"
 width="700.000000pt" height="700.000000pt" viewBox="0 0 700.000000 700.000000"
 preserveAspectRatio="xMidYMid meet">
<metadata>
Created by potrace 1.14, written by Peter Selinger 2001-2017
</metadata>
<g transform="translate(0.000000,700.000000) scale(0.100000,-0.100000)"
fill="#000000" stroke="none">
<path d="M0 3938 c0 -2353 1 -2478 18 -2479 22 0 3464 0 3475 0 4 1 7 132 7
291 0 225 -3 290 -12 291 -7 0 -663 1 -1458 2 l-1445 2 0 1894 0 1895 2895 0
c1592 1 2904 0 2916 -2 l20 -4 0 -1891 -1 -1892 -138 -1 c-76 -1 -141 -5 -145
-9 -4 -3 -7 -135 -7 -291 l0 -284 30 -1 c37 0 804 0 828 0 16 1 17 126 17
2479 l0 2478 -3500 0 -3500 0 0 -2478z"/>
<path d="M1168 4947 c-6 -22 -2 -267 5 -274 8 -7 2002 -12 2025 -5 9 3 12 41
12 147 l0 143 -1019 0 c-762 0 -1020 -3 -1023 -11z"/>
<path d="M4745 4947 c-16 -5 -64 -33 -105 -61 -116 -79 -115 -78 -235 -81 -61
-1 -126 -6 -145 -10 -80 -17 -135 -80 -170 -190 -36 -114 -49 -133 -144 -202
-103 -75 -110 -82 -136 -137 -24 -51 -19 -110 15 -208 34 -94 34 -136 2 -233
-37 -115 -41 -141 -26 -192 14 -53 61 -105 145 -161 85 -57 107 -87 143 -193
56 -169 101 -201 286 -206 66 -2 132 -7 147 -12 15 -5 67 -37 115 -70 149
-101 208 -99 370 12 91 62 101 65 258 70 91 3 117 8 149 26 64 37 84 66 130
199 35 97 45 112 128 168 167 114 187 176 123 369 -31 92 -29 118 10 240 21
62 25 93 22 138 -7 74 -32 108 -137 182 -94 66 -112 88 -140 163 -11 31 -27
76 -36 100 -22 58 -56 96 -110 122 -36 18 -66 23 -162 25 -64 2 -128 7 -142
12 -14 4 -67 36 -119 71 -51 34 -101 63 -110 63 -79 6 -100 5 -126 -4z m185
-589 c182 -48 311 -215 316 -407 4 -174 -89 -331 -239 -404 -323 -157 -682
114 -624 471 3 24 21 73 38 110 90 187 305 285 509 230z"/>
<path d="M1171 4075 c-3 -5 -6 -71 -6 -145 l1 -135 1019 0 1020 0 0 145 0 144
-1013 1 c-665 0 -1016 -3 -1021 -10z"/>
<path d="M1169 3197 c-6 -84 -2 -270 6 -276 12 -8 1136 -8 1150 1 6 4 10 63 9
145 l0 138 -582 2 c-446 1 -582 -1 -583 -10z"/>
<path d="M4089 2620 c-5 -15 -4 -2030 0 -2030 6 0 53 28 439 257 l293 175 27
-18 c32 -22 51 -34 89 -55 15 -8 156 -93 312 -188 156 -95 285 -170 288 -168
3 3 6 1715 3 1987 l0 45 -185 0 c-118 0 -189 -4 -193 -11 -4 -6 -27 -24 -52
-40 -195 -130 -419 -125 -614 15 l-49 35 -179 1 c-98 0 -179 -2 -179 -5z"/>
</g>
</svg>
